<svg width="74" height="50" viewBox="0 0 74 50" fill="none" xmlns="http://www.w3.org/2000/svg">
<g id="W." filter="url(#filter0_d_0_284)">
<path fill-rule="evenodd" clip-rule="evenodd" d="M28.786 39.92C28.59 40.1067 28.3333 40.2 28.016 40.2H17.46C17.1427 40.2 16.8813 40.1067 16.676 39.92C16.4707 39.7333 16.368 39.4627 16.368 39.108V37.288C16.368 37.008 16.3447 36.7607 16.298 36.546C16.2513 36.3313 16.172 36.0093 16.06 35.58L8.22 5.172C8.08933 4.68667 7.93067 4.332 7.744 4.108C7.55733 3.884 7.28667 3.70667 6.932 3.576L5.7 3.184C5.45733 3.072 5.28 2.918 5.168 2.722C5.056 2.526 5 2.316 5 2.092C5 1.756 5.112 1.49 5.336 1.294C5.56 1.098 5.896 1 6.344 1H22.556C23.0227 1 23.368 1.098 23.592 1.294C23.816 1.49 23.928 1.756 23.928 2.092C23.928 2.596 23.676 2.932 23.172 3.1L21.716 3.436C21.3427 3.548 21.1093 3.77667 21.016 4.122L20.9871 4.25653C20.934 4.58218 20.981 4.99 21.128 5.48L27.63 31.389L33.183 11.914L31.432 5.172C31.264 4.57467 31.11 4.17333 30.97 3.968C30.83 3.76267 30.6293 3.61333 30.368 3.52L29.192 3.1C28.912 2.988 28.7113 2.85267 28.59 2.694C28.4687 2.53533 28.408 2.344 28.408 2.12C28.408 1.76533 28.5247 1.49 28.758 1.294C28.9913 1.098 29.332 1 29.78 1H45.656C46.1227 1 46.468 1.098 46.692 1.294C46.916 1.49 47.028 1.76533 47.028 2.12C47.028 2.36267 46.958 2.57267 46.818 2.75C46.678 2.92733 46.4587 3.072 46.16 3.184L44.928 3.52C44.5733 3.632 44.3493 3.83267 44.256 4.122L44.2294 4.22519C44.1704 4.51832 44.2073 4.95526 44.34 5.536L50.817 31.346L56.352 7.86C56.5947 6.83333 56.5247 5.93733 56.142 5.172C55.7593 4.40667 55.008 3.81867 53.888 3.408L53.272 3.184C53.0107 3.05333 52.8193 2.90867 52.698 2.75C52.5767 2.59133 52.516 2.38133 52.516 2.12C52.516 1.784 52.6327 1.51333 52.866 1.308C53.0993 1.10267 53.4493 1 53.916 1H62.82C63.2867 1 63.6367 1.10267 63.87 1.308C64.1033 1.51333 64.22 1.784 64.22 2.12C64.22 2.38133 64.15 2.59133 64.01 2.75C63.87 2.90867 63.632 3.072 63.296 3.24L62.624 3.548C61.8027 3.90267 61.0747 4.458 60.44 5.214C59.8053 5.97 59.3387 6.97333 59.04 8.224L52.824 35.132C52.6933 35.6173 52.6047 36.0047 52.558 36.294C52.5113 36.5833 52.488 36.9147 52.488 37.288V39.108C52.488 39.4627 52.3853 39.7333 52.18 39.92C51.9747 40.1067 51.7227 40.2 51.424 40.2H40.728C40.4107 40.2 40.154 40.1067 39.958 39.92C39.762 39.7333 39.664 39.4627 39.664 39.108V37.288C39.664 37.0267 39.6407 36.7887 39.594 36.574L39.5714 36.4749C39.5211 36.2623 39.44 35.964 39.328 35.58L34.506 17.01L29.416 35.132C29.3227 35.4493 29.2433 35.776 29.178 36.112C29.1127 36.448 29.08 36.84 29.08 37.288V39.108C29.08 39.4627 28.982 39.7333 28.786 39.92ZM66.026 40.032C65.0833 40.6107 64.0147 40.9 62.82 40.9C61.6627 40.9 60.6127 40.6107 59.67 40.032C58.7273 39.4533 57.9807 38.674 57.43 37.694C56.8793 36.714 56.604 35.6547 56.604 34.516C56.604 33.3587 56.8793 32.304 57.43 31.352C57.9807 30.4 58.7273 29.6393 59.67 29.07C60.6127 28.5007 61.6627 28.216 62.82 28.216C64.0147 28.216 65.0833 28.5007 66.026 29.07C66.9687 29.6393 67.7153 30.4 68.266 31.352C68.8167 32.304 69.092 33.3587 69.092 34.516C69.092 35.6547 68.8167 36.714 68.266 37.694C67.7153 38.674 66.9687 39.4533 66.026 40.032Z" fill="#00001A"/>
<path d="M16.06 35.58L15.5758 35.7048L15.5762 35.7062L16.06 35.58ZM8.22 5.172L8.70419 5.04716L8.70281 5.04201L8.22 5.172ZM6.932 3.576L7.10485 3.10683L7.09431 3.10294L7.0836 3.09954L6.932 3.576ZM5.7 3.184L5.49047 3.63798L5.51873 3.65102L5.5484 3.66046L5.7 3.184ZM5.336 1.294L5.00675 0.917712L5.00675 0.917712L5.336 1.294ZM23.592 1.294L23.9213 0.917711L23.9213 0.917711L23.592 1.294ZM23.172 3.1L23.2844 3.5872L23.3076 3.58185L23.3301 3.57434L23.172 3.1ZM21.716 3.436L21.6036 2.9488L21.5878 2.95244L21.5723 2.95709L21.716 3.436ZM21.016 4.122L20.5333 3.99154L20.5299 4.00423L20.5271 4.01707L21.016 4.122ZM20.9871 4.25653L20.4983 4.1516L20.4956 4.16379L20.4936 4.17609L20.9871 4.25653ZM21.128 5.48L21.613 5.3583L21.6102 5.34724L21.6069 5.33633L21.128 5.48ZM27.63 31.389L27.145 31.5107L27.5992 33.3205L28.1108 31.5261L27.63 31.389ZM33.183 11.914L33.6638 12.0511L33.7012 11.9201L33.6669 11.7883L33.183 11.914ZM31.432 5.172L31.916 5.04629L31.9133 5.03663L31.432 5.172ZM30.368 3.52L30.1998 3.99087L30.1998 3.99087L30.368 3.52ZM29.192 3.1L29.0063 3.56424L29.015 3.56772L29.0238 3.57087L29.192 3.1ZM28.758 1.294L28.4364 0.911147L28.4364 0.911147L28.758 1.294ZM46.692 1.294L47.0213 0.917712L47.0213 0.917712L46.692 1.294ZM46.16 3.184L46.2916 3.66638L46.3139 3.66029L46.3356 3.65216L46.16 3.184ZM44.928 3.52L44.7964 3.03762L44.7869 3.04023L44.7774 3.04321L44.928 3.52ZM44.256 4.122L43.7801 3.9685L43.7756 3.98268L43.7719 3.9971L44.256 4.122ZM44.2294 4.22519L43.7452 4.10029L43.7419 4.11333L43.7392 4.12654L44.2294 4.22519ZM44.34 5.536L43.8525 5.64744L43.855 5.6577L44.34 5.536ZM50.817 31.346L50.332 31.4677L51.3037 31.4607L50.817 31.346ZM56.352 7.86L55.8654 7.74499L55.8653 7.74531L56.352 7.86ZM56.142 5.172L55.6948 5.39561L55.6948 5.39561L56.142 5.172ZM53.888 3.408L54.0601 2.93856L54.0589 2.9381L53.888 3.408ZM53.272 3.184L53.0484 3.63121L53.0741 3.64407L53.1011 3.6539L53.272 3.184ZM52.866 1.308L53.1963 1.68336L53.1963 1.68336L52.866 1.308ZM63.87 1.308L63.5397 1.68336L63.5397 1.68336L63.87 1.308ZM63.296 3.24L63.5043 3.69453L63.512 3.691L63.5196 3.68721L63.296 3.24ZM62.624 3.548L62.8223 4.00714L62.8323 4.00253L62.624 3.548ZM59.04 8.224L58.5537 8.10786L58.5528 8.11146L59.04 8.224ZM52.824 35.132L53.3068 35.262L53.3091 35.2533L53.3112 35.2445L52.824 35.132ZM39.594 36.574L40.0826 36.4678L40.0815 36.463L39.594 36.574ZM39.5714 36.4749L40.059 36.3639L40.058 36.3598L39.5714 36.4749ZM39.328 35.58L38.844 35.7057L38.8459 35.7129L38.848 35.72L39.328 35.58ZM34.506 17.01L34.99 16.8843L34.5249 15.0935L34.0246 16.8748L34.506 17.01ZM29.416 35.132L29.8957 35.2731L29.8974 35.2672L29.416 35.132ZM66.026 40.032L66.2876 40.4581L66.2876 40.4581L66.026 40.032ZM59.67 40.032L59.4084 40.4581L59.4084 40.4581L59.67 40.032ZM59.67 29.07L59.4115 28.642L59.4115 28.642L59.67 29.07ZM66.026 29.07L66.2845 28.642L66.2845 28.642L66.026 29.07ZM28.016 40.7C28.438 40.7 28.826 40.5724 29.1308 40.2821L28.4412 39.5579C28.354 39.641 28.2286 39.7 28.016 39.7V40.7ZM17.46 40.7H28.016V39.7H17.46V40.7ZM16.3397 40.29C16.6503 40.5723 17.0374 40.7 17.46 40.7V39.7C17.2479 39.7 17.1124 39.641 17.0123 39.55L16.3397 40.29ZM15.868 39.108C15.868 39.5618 16.0028 39.9837 16.3397 40.29L17.0123 39.55C16.9385 39.4829 16.868 39.3635 16.868 39.108H15.868ZM15.868 37.288V39.108H16.868V37.288H15.868ZM15.8094 36.6522C15.8468 36.824 15.868 37.0345 15.868 37.288H16.868C16.868 36.9815 16.8426 36.6973 16.7866 36.4398L15.8094 36.6522ZM15.5762 35.7062C15.6878 36.1341 15.765 36.448 15.8094 36.6522L16.7866 36.4398C16.7376 36.2147 16.6562 35.8845 16.5438 35.4538L15.5762 35.7062ZM7.73583 5.29683L15.5758 35.7048L16.5442 35.4552L8.70417 5.04717L7.73583 5.29683ZM7.35989 4.42809C7.47827 4.57015 7.61361 4.84298 7.73719 5.30199L8.70281 5.04201C8.56505 4.53035 8.38307 4.09385 8.12811 3.78791L7.35989 4.42809ZM6.75915 4.04517C7.05533 4.15429 7.24362 4.28857 7.35989 4.42809L8.12811 3.78791C7.87105 3.47943 7.518 3.25904 7.10485 3.10683L6.75915 4.04517ZM5.5484 3.66046L6.7804 4.05246L7.0836 3.09954L5.8516 2.70754L5.5484 3.66046ZM4.73388 2.97007C4.90646 3.27208 5.17118 3.49061 5.49047 3.63798L5.90953 2.73002C5.74349 2.65339 5.65354 2.56392 5.60212 2.47393L4.73388 2.97007ZM4.5 2.092C4.5 2.40372 4.57906 2.69914 4.73388 2.97007L5.60212 2.47393C5.53294 2.35286 5.5 2.22828 5.5 2.092H4.5ZM5.00675 0.917712C4.65957 1.22149 4.5 1.63253 4.5 2.092H5.5C5.5 1.87947 5.56443 1.75851 5.66525 1.67029L5.00675 0.917712ZM6.344 0.5C5.83411 0.5 5.35831 0.610096 5.00675 0.917712L5.66525 1.67029C5.76169 1.5859 5.95789 1.5 6.344 1.5V0.5ZM22.556 0.5H6.344V1.5H22.556V0.5ZM23.9213 0.917711C23.5666 0.607413 23.0783 0.5 22.556 0.5V1.5C22.967 1.5 23.1694 1.58859 23.2627 1.67029L23.9213 0.917711ZM24.428 2.092C24.428 1.63253 24.2684 1.22149 23.9213 0.917711L23.2627 1.67029C23.3636 1.75851 23.428 1.87947 23.428 2.092H24.428ZM23.3301 3.57434C23.653 3.46672 23.9376 3.29057 24.139 3.022C24.3421 2.7512 24.428 2.42993 24.428 2.092H23.428C23.428 2.25807 23.3879 2.3568 23.339 2.422C23.2884 2.48943 23.195 2.56528 23.0139 2.62566L23.3301 3.57434ZM21.8284 3.9232L23.2844 3.5872L23.0596 2.6128L21.6036 2.9488L21.8284 3.9232ZM21.4987 4.25246C21.5422 4.09127 21.6342 3.98255 21.8597 3.91491L21.5723 2.95709C21.0511 3.11345 20.6764 3.46206 20.5333 3.99154L21.4987 4.25246ZM21.476 4.36146L21.5049 4.22693L20.5271 4.01707L20.4983 4.1516L21.476 4.36146ZM21.6069 5.33633C21.4709 4.88289 21.4446 4.55785 21.4806 4.33697L20.4936 4.17609C20.4235 4.60651 20.4911 5.09711 20.6491 5.62367L21.6069 5.33633ZM28.115 31.2673L21.613 5.3583L20.643 5.6017L27.145 31.5107L28.115 31.2673ZM32.7022 11.7769L27.1492 31.2519L28.1108 31.5261L33.6638 12.0511L32.7022 11.7769ZM30.9481 5.29769L32.6991 12.0397L33.6669 11.7883L31.9159 5.04631L30.9481 5.29769ZM30.5569 4.24967C30.6455 4.3796 30.7818 4.70705 30.9507 5.30737L31.9133 5.03663C31.7462 4.44228 31.5745 3.96706 31.3831 3.68633L30.5569 4.24967ZM30.1998 3.99087C30.3737 4.05298 30.4834 4.14182 30.5569 4.24967L31.3831 3.68633C31.1766 3.38351 30.8849 3.17369 30.5362 3.04913L30.1998 3.99087ZM29.0238 3.57087L30.1998 3.99087L30.5362 3.04913L29.3602 2.62913L29.0238 3.57087ZM28.1928 2.99773C28.39 3.25554 28.6821 3.43457 29.0063 3.56424L29.3777 2.63576C29.1419 2.54143 29.0327 2.44979 28.9872 2.39027L28.1928 2.99773ZM27.908 2.12C27.908 2.43975 27.9968 2.74133 28.1928 2.99773L28.9872 2.39027C28.9406 2.32934 28.908 2.24825 28.908 2.12H27.908ZM28.4364 0.911147C28.0709 1.2182 27.908 1.64455 27.908 2.12H28.908C28.908 1.88611 28.9785 1.7618 29.0796 1.67685L28.4364 0.911147ZM29.78 0.5C29.2681 0.5 28.7938 0.610917 28.4364 0.911147L29.0796 1.67685C29.1888 1.58508 29.3959 1.5 29.78 1.5V0.5ZM45.656 0.5H29.78V1.5H45.656V0.5ZM47.0213 0.917712C46.6666 0.607411 46.1783 0.5 45.656 0.5V1.5C46.067 1.5 46.2694 1.58859 46.3627 1.67029L47.0213 0.917712ZM47.528 2.12C47.528 1.65144 47.3746 1.22693 47.0213 0.917712L46.3627 1.67029C46.4574 1.75307 46.528 1.87923 46.528 2.12H47.528ZM47.2104 3.05982C47.4254 2.7875 47.528 2.46619 47.528 2.12H46.528C46.528 2.25914 46.4906 2.35783 46.4256 2.44018L47.2104 3.05982ZM46.3356 3.65216C46.6862 3.52069 46.9953 3.33235 47.2104 3.05982L46.4256 2.44018C46.3607 2.52232 46.2312 2.62331 45.9844 2.71584L46.3356 3.65216ZM45.0596 4.00238L46.2916 3.66638L46.0284 2.70162L44.7964 3.03762L45.0596 4.00238ZM44.7319 4.2755C44.7642 4.17535 44.8394 4.07233 45.0786 3.99679L44.7774 3.04321C44.3073 3.19167 43.9345 3.48998 43.7801 3.9685L44.7319 4.2755ZM44.7135 4.35008L44.7401 4.2469L43.7719 3.9971L43.7452 4.10029L44.7135 4.35008ZM44.8274 5.42459C44.6979 4.85781 44.6825 4.5079 44.7196 4.32383L43.7392 4.12654C43.6583 4.52874 43.7166 5.05271 43.8526 5.64741L44.8274 5.42459ZM51.302 31.2243L44.825 5.4143L43.855 5.6577L50.332 31.4677L51.302 31.2243ZM55.8653 7.74531L50.3303 31.2313L51.3037 31.4607L56.8387 7.97469L55.8653 7.74531ZM55.6948 5.39561C56.0137 6.03344 56.0876 6.80488 55.8654 7.74499L56.8386 7.97501C57.1017 6.86179 57.0356 5.84122 56.5892 4.94839L55.6948 5.39561ZM53.7159 3.87744C54.7637 4.26165 55.3883 4.78268 55.6948 5.39561L56.5892 4.94839C56.1303 4.03066 55.2523 3.37569 54.0601 2.93856L53.7159 3.87744ZM53.1011 3.6539L53.7171 3.8779L54.0589 2.9381L53.4429 2.7141L53.1011 3.6539ZM52.3008 3.05373C52.4847 3.29417 52.7481 3.48106 53.0484 3.63121L53.4956 2.73679C53.2732 2.6256 53.154 2.52317 53.0952 2.44627L52.3008 3.05373ZM52.016 2.12C52.016 2.4572 52.0948 2.78428 52.3008 3.05373L53.0952 2.44627C53.0586 2.39838 53.016 2.30546 53.016 2.12H52.016ZM52.5357 0.932643C52.185 1.24124 52.016 1.65344 52.016 2.12H53.016C53.016 1.91456 53.0803 1.78543 53.1963 1.68336L52.5357 0.932643ZM53.916 0.5C53.3869 0.5 52.8966 0.615027 52.5357 0.932643L53.1963 1.68336C53.3021 1.59031 53.5118 1.5 53.916 1.5V0.5ZM62.82 0.5H53.916V1.5H62.82V0.5ZM64.2003 0.932643C63.8394 0.615027 63.3491 0.5 62.82 0.5V1.5C63.2242 1.5 63.4339 1.59031 63.5397 1.68336L64.2003 0.932643ZM64.72 2.12C64.72 1.65344 64.551 1.24124 64.2003 0.932643L63.5397 1.68336C63.6557 1.78543 63.72 1.91456 63.72 2.12H64.72ZM64.3849 3.08081C64.6233 2.81068 64.72 2.47336 64.72 2.12H63.72C63.72 2.28931 63.6767 2.37199 63.6351 2.41919L64.3849 3.08081ZM63.5196 3.68721C63.8755 3.50927 64.1815 3.31141 64.3849 3.08081L63.6351 2.41919C63.5585 2.50593 63.3885 2.63473 63.0724 2.79279L63.5196 3.68721ZM62.8323 4.00253L63.5043 3.69453L63.0877 2.78547L62.4157 3.09347L62.8323 4.00253ZM60.8229 5.53549C61.4128 4.83283 62.0795 4.32777 62.8222 4.00703L62.4258 3.08897C61.5259 3.47756 60.7365 4.08317 60.0571 4.89252L60.8229 5.53549ZM59.5263 8.34014C59.8122 7.14298 60.251 6.21678 60.8229 5.53549L60.0571 4.89252C59.3597 5.72322 58.8651 6.80368 58.5537 8.10786L59.5263 8.34014ZM53.3112 35.2445L59.5272 8.33654L58.5528 8.11146L52.3368 35.0195L53.3112 35.2445ZM53.0516 36.3736C53.0943 36.109 53.1779 35.7406 53.3068 35.262L52.3412 35.002C52.2087 35.494 52.115 35.9003 52.0644 36.2144L53.0516 36.3736ZM52.988 37.288C52.988 36.9345 53.0102 36.6306 53.0516 36.3736L52.0644 36.2144C52.0125 36.536 51.988 36.8948 51.988 37.288H52.988ZM52.988 39.108V37.288H51.988V39.108H52.988ZM52.5163 40.29C52.8532 39.9837 52.988 39.5618 52.988 39.108H51.988C51.988 39.3635 51.9175 39.4829 51.8437 39.55L52.5163 40.29ZM51.424 40.7C51.8367 40.7 52.2116 40.567 52.5163 40.29L51.8437 39.55C51.7377 39.6463 51.6086 39.7 51.424 39.7V40.7ZM40.728 40.7H51.424V39.7H40.728V40.7ZM39.6132 40.2821C39.918 40.5724 40.306 40.7 40.728 40.7V39.7C40.5154 39.7 40.39 39.641 40.3028 39.5579L39.6132 40.2821ZM39.164 39.108C39.164 39.555 39.2899 39.9742 39.6132 40.2821L40.3028 39.5579C40.2341 39.4925 40.164 39.3703 40.164 39.108H39.164ZM39.164 37.288V39.108H40.164V37.288H39.164ZM39.1054 36.6802C39.1432 36.8542 39.164 37.0559 39.164 37.288H40.164C40.164 36.9975 40.1381 36.7232 40.0826 36.4678L39.1054 36.6802ZM39.0839 36.5858L39.1065 36.685L40.0815 36.463L40.059 36.3639L39.0839 36.5858ZM38.848 35.72C38.9592 36.1013 39.0375 36.3899 39.0849 36.59L40.058 36.3598C40.0047 36.1346 39.9208 35.8267 39.808 35.44L38.848 35.72ZM34.022 17.1357L38.844 35.7057L39.8119 35.4543L34.99 16.8843L34.022 17.1357ZM29.8974 35.2672L34.9874 17.1452L34.0246 16.8748L28.9346 34.9968L29.8974 35.2672ZM29.6688 36.2074C29.7313 35.8863 29.8069 35.5749 29.8957 35.2731L28.9363 34.9909C28.8384 35.3238 28.7554 35.6657 28.6872 36.0166L29.6688 36.2074ZM29.58 37.288C29.58 36.8628 29.6111 36.5041 29.6688 36.2074L28.6872 36.0166C28.6142 36.3919 28.58 36.8172 28.58 37.288H29.58ZM29.58 39.108V37.288H28.58V39.108H29.58ZM29.1308 40.2821C29.4541 39.9742 29.58 39.555 29.58 39.108H28.58C28.58 39.3703 28.5099 39.4925 28.4412 39.5579L29.1308 40.2821ZM62.82 41.4C64.0993 41.4 65.2599 41.089 66.2876 40.4581L65.7644 39.6059C64.9067 40.1324 63.93 40.4 62.82 40.4V41.4ZM59.4084 40.4581C60.4335 41.0874 61.5748 41.4 62.82 41.4V40.4C61.7505 40.4 60.7918 40.1339 59.9316 39.6059L59.4084 40.4581ZM56.9941 37.9389C57.5858 38.9919 58.3919 39.8341 59.4084 40.4581L59.9316 39.6059C59.0627 39.0725 58.3756 38.3561 57.8659 37.4491L56.9941 37.9389ZM56.104 34.516C56.104 35.7393 56.4008 36.8831 56.9941 37.9389L57.8659 37.4491C57.3578 36.5449 57.104 35.57 57.104 34.516H56.104ZM56.9972 31.1016C56.4002 32.1338 56.104 33.2755 56.104 34.516H57.104C57.104 33.4418 57.3585 32.4742 57.8628 31.6024L56.9972 31.1016ZM59.4115 28.642C58.3968 29.2549 57.5901 30.0766 56.9972 31.1016L57.8628 31.6024C58.3712 30.7234 59.0579 30.0238 59.9285 29.498L59.4115 28.642ZM62.82 27.716C61.5764 27.716 60.4362 28.0231 59.4115 28.642L59.9285 29.498C60.7891 28.9782 61.7489 28.716 62.82 28.716V27.716ZM66.2845 28.642C65.2573 28.0216 64.0978 27.716 62.82 27.716V28.716C63.9316 28.716 64.9094 28.9797 65.7675 29.498L66.2845 28.642ZM68.6988 31.1016C68.1059 30.0766 67.2992 29.2549 66.2845 28.642L65.7675 29.498C66.6381 30.0238 67.3248 30.7234 67.8332 31.6024L68.6988 31.1016ZM69.592 34.516C69.592 33.2755 69.2958 32.1338 68.6988 31.1016L67.8332 31.6024C68.3375 32.4742 68.592 33.4418 68.592 34.516H69.592ZM68.7019 37.9389C69.2952 36.8831 69.592 35.7393 69.592 34.516H68.592C68.592 35.57 68.3382 36.5449 67.8301 37.4491L68.7019 37.9389ZM66.2876 40.4581C67.3041 39.8341 68.1102 38.9919 68.7019 37.9389L67.8301 37.4491C67.3204 38.3561 66.6333 39.0725 65.7644 39.6059L66.2876 40.4581Z" fill="black"/>
</g>
<defs>
<filter id="filter0_d_0_284" x="0.5" y="0.5" width="73.092" height="48.9" filterUnits="userSpaceOnUse" color-interpolation-filters="sRGB">
<feFlood flood-opacity="0" result="BackgroundImageFix"/>
<feColorMatrix in="SourceAlpha" type="matrix" values="0 0 0 0 0 0 0 0 0 0 0 0 0 0 0 0 0 0 127 0" result="hardAlpha"/>
<feOffset dy="4"/>
<feGaussianBlur stdDeviation="2"/>
<feComposite in2="hardAlpha" operator="out"/>
<feColorMatrix type="matrix" values="0 0 0 0 0 0 0 0 0 0 0 0 0 0 0 0 0 0 0.25 0"/>
<feBlend mode="normal" in2="BackgroundImageFix" result="effect1_dropShadow_0_284"/>
<feBlend mode="normal" in="SourceGraphic" in2="effect1_dropShadow_0_284" result="shape"/>
</filter>
</defs>
</svg>
